<?xml version="1.0" standalone="no"?>
<!DOCTYPE svg PUBLIC "-//W3C//DTD SVG 20010904//EN"
 "http://www.w3.org/TR/2001/REC-SVG-20010904/DTD/svg10.dtd">
<svg version="1.0" xmlns="http://www.w3.org/2000/svg"
 width="1202.000000pt" height="1202.000000pt" viewBox="0 0 1202.000000 1202.000000"
 preserveAspectRatio="xMidYMid meet">
<metadata>
Created by potrace 1.11, written by Peter Selinger 2001-2013
</metadata>
<g transform="translate(0.000000,1202.000000) scale(0.100000,-0.100000)"
fill="#000000" stroke="none">
<path d="M618 11939 c-31 -4 -90 -20 -130 -34 -40 -14 -79 -26 -85 -27 -7 -1
-13 -5 -13 -10 0 -4 -6 -8 -14 -8 -8 0 -16 -3 -18 -7 -1 -5 -38 -34 -80 -67
-43 -32 -78 -64 -78 -71 0 -8 -12 -23 -26 -34 -15 -12 -24 -21 -21 -21 3 0
-10 -26 -29 -57 -35 -59 -82 -190 -90 -253 -3 -19 -7 -2414 -10 -5321 -5
-4824 -4 -5293 10 -5378 48 -277 233 -488 496 -564 l75 -22 5390 0 c4569 0
5399 2 5450 14 185 43 370 185 451 348 16 32 33 61 37 64 5 3 8 9 7 13 -1 3 7
32 17 64 17 55 18 267 18 5432 0 5122 -1 5378 -18 5435 -27 91 -57 153 -111
228 -50 70 -168 180 -205 192 -12 3 -21 11 -21 16 0 5 -3 8 -7 7 -5 -1 -26 6
-48 16 -22 10 -73 26 -114 37 -73 19 -179 19 -5425 18 -2943 -1 -5377 -5
-5408 -10z"/>
</g>
</svg>
